<svg viewBox="13.864864864864863 3.4459999999999997 74.05405405405405 92.88" version="1.1" xmlns="http://www.w3.org/2000/svg" style="max-height: 500px" width="74.05405405405405" height="92.88">
 <path d="m49.633 12.875c0.26172 2.1758 0.55469 4.3477 0.89453 6.5117 0.14844 0.86328 1.4844 0.70312 1.4219-0.16797-0.26953-1.9844-0.60547-4.0273-0.82031-6.0273-0.14844-0.87891-0.23828-1.7656-0.34766-2.6484 2.9922 0.85156 5.9883 1.6562 8.957 2.6016 0.64453 0.25 1.3555-0.49219 0.92578-1.0898-0.37109-0.44531-1.0234-0.54297-1.5547-0.72266-1.6367-0.52344-3.2812-0.93359-4.9414-1.3945-1.3477-0.31641-2.6953-0.88281-4.0586-1.0977-0.26953-0.10156-0.57812-0.058594-0.76953 0.23828-0.16016 0.21484-0.19141 0.50781-0.14453 0.76172 0.15625 1.0078 0.29297 2.0234 0.42969 3.0352z"/>
 <path d="m55.73 16.387c0.27734-0.21094 0.34766-0.59766 0.17969-0.89453-0.67188-1.1094-1.4844-2.1797-2.4414-3.0508-0.69531-0.41016-1.3398 0.16406-1.0195 0.89844 0.71875 0.95703 1.5898 1.9023 2.3125 2.918 0.23438 0.30078 0.67188 0.35938 0.96875 0.12891z"/>
 <path d="m60.633 23.18c-0.56641-1.5039-1.5508-2.8203-2.4414-4.1445-0.96484-1.1602-2.0781 0.14062-1.0703 1.1367 0.8125 1.1172 1.5156 2.3398 2.2461 3.5391 0.18359 0.29687 0.55078 0.42578 0.86719 0.29297 0.30469-0.12891 0.50391-0.49609 0.39844-0.82422z"/>
 <path d="m64.082 33.898c0.66797-0.1875 0.52734-0.96484 0.34375-1.4648-0.49609-1.7383-1.1836-3.4141-1.9102-5.0703-0.24609-0.63672-1.2031-0.87109-1.3945-0.0625-0.11719 0.64062 0.34766 1.1953 0.53125 1.7852 0.64844 1.4297 1.0742 2.9141 1.6055 4.4102 0.14453 0.31641 0.49609 0.49609 0.82813 0.40234z"/>
 <path d="m63.785 48.73c-0.41016 0.42969-0.33594 1.0859-0.48047 1.6289-0.25391 1.2617-0.55469 2.5312-0.93359 3.7656-0.14453 0.53125-0.42578 1.3867 0.30859 1.5898 1.3672 0.42969 2.0391-5.0977 2.2695-6.1484 0.14844-0.68359-0.55859-1.4375-1.1641-0.83984z"/>
 <path d="m60.176 59.242c-0.85938 1.6289-1.8867 3.1016-2.9805 4.6055-0.23047 0.28516-0.15625 0.72656 0.12891 0.94531 0.78516 0.52344 1.3164-0.59375 1.7578-1.082 0.73047-0.94141 1.3711-1.9492 1.9609-2.9883 0.23438-0.48438 0.65234-0.96875 0.58984-1.5352-0.15234-0.94531-1.207-0.69531-1.4531 0.050781z"/>
 <path d="m54.27 66.984c-0.57031 0.18359-0.90234 0.75391-1.3672 1.1016-0.64844 0.56641-1.3477 1.1406-2.0664 1.7109-0.55078 0.58984-2.3086 1.168-1.6758 2.168 0.82422 0.94531 2.6719-1.1289 3.4297-1.6094 0.75781-0.60938 1.4844-1.25 2.1875-1.9258 0.19141-0.18359 0.33594-0.38281 0.37891-0.64844 0.11719-0.52734-0.38281-0.95312-0.88672-0.79688z"/>
 <path d="m45.359 73.109c-1.6914 0.93359-3.4922 1.7852-5.4023 2.1445-1.1172 0.058594-1.1836 1.5273-0.023437 1.5195 1.7891-0.21094 3.4766-0.93359 5.0938-1.6992 0.65625-0.37891 1.8516-0.6875 1.6641-1.6562-0.17188-0.55469-0.90625-0.58203-1.3281-0.30859z"/>
 <path d="m34.512 75.473c-1.2656-0.16797-2.5078-0.37109-3.7539-0.78125-0.73437-0.16797-1.8945-1.1094-2.4102-0.16016-0.53516 1.7266 5.2344 2.3867 6.4297 2.4844 0.68359 0.1875 1.6758-0.37891 1.125-1.125-0.32422-0.4375-0.91016-0.35156-1.3867-0.42188z"/>
 <path d="m25.258 71.285c-0.58203-0.37891-1.0742-0.82812-1.5586-1.3359-0.625-0.62109-1.2617-1.4961-1.7695-2.293-0.3125-0.52344-0.75-1.5352-1.5039-1.0898-1.3984 0.84766 3.3789 6.3906 4.5703 6.1992 0.86719-0.019531 0.89062-1.0898 0.25391-1.4805z"/>
 <path d="m19.312 58.293c-0.027344-0.71484 0.16797-1.4219 0.10938-2.1328-0.046875-0.75-1.1602-0.85938-1.3711-0.14844-0.44922 1.082-0.70312 7.2891 0.89844 7.2656 1.0508-0.10156 0.63672-1.3477 0.51172-2.0234-0.15234-0.89062-0.22656-1.9922-0.14844-2.9609z"/>
 <path d="m20.773 51.066c0.44531-1.082 1.0781-2.0586 1.7422-3.0664 0.20312-0.27344 0.42969-0.53125 0.62891-0.8125 0.47656-0.70703-0.54297-1.543-1.1484-0.94531-0.73438 0.76172-3.8164 4.9883-2.5156 5.7617 0.63672 0.35156 1.1523-0.39844 1.2969-0.9375z"/>
 <path d="m30.648 40.562c0.57422-0.46484 0.019531-1.4375-0.67578-1.1953-1.5273 0.62891-2.9062 1.7539-4.1602 2.8438-0.46094 0.38672-1.1484 0.98047-0.73438 1.6328 0.67969 0.77344 1.4844-0.24609 2.0195-0.69141 0.87891-0.79297 1.8086-1.5078 2.8281-2.1367 0.25391-0.14062 0.48828-0.26953 0.72266-0.45312z"/>
 <path d="m39.828 36.891c-0.14062-1.3281-4.1367-0.027344-5.0234 0.17578-0.27734 0.09375-0.57422 0.14453-0.83203 0.28906-0.60156 0.35547-0.66016 1.1992 0.10156 1.3828 0.28125 0.078125 0.55078-0.003906 0.82422-0.085937 1.0273-0.30859 2.0703-0.56641 3.1289-0.74219 0.65625-0.14453 1.9102-0.023437 1.8047-1.0156z"/>
 <path d="m49.539 36.199c-1.9297-0.53906-4.0117-0.46875-6.0156-0.30859-0.39453 0.074219-0.78125 0.41406-0.76953 0.83594 0.17578 1.0547 1.5156 0.66016 2.2656 0.61328 0.95312-0.089844 2.1133 0.023437 3.1094 0.097656 0.39453 0.03125 0.79297 0.097656 1.1914 0.10156 0.73438-0.007812 0.90234-1.0898 0.22266-1.3359z"/>
 <path d="m59.621 39.32c-1.168-0.76172-2.4922-1.25-3.8125-1.6836-0.60156-0.22656-1.5586-0.61719-1.9297 0.15234-0.14062 0.36719 0.12891 0.73828 0.4375 0.91016 1.6836 0.5 3.293 1.2461 4.8867 2.0039 0.95312 0.23828 1.2227-0.94922 0.41797-1.3867z"/>
 <path d="m59.227 40.715c-0.007812-0.003906-0.015624-0.007813-0.023437-0.011719s-0.011719-0.003906-0.019531-0.003906l0.039062 0.015625z"/>
 <path d="m67.672 43.039c-0.60547-0.42969-1.2227-0.89844-1.8633-1.3281-0.019532-1.1484-0.078125-2.293-0.19531-3.4336-0.10547-1.4492-1.6719-1.1523-1.4219 0.23438 0.058594 0.76953 0.089844 1.543 0.10938 2.3203-0.40234-0.1875-0.81641-0.34375-1.25-0.44531-0.51953-0.011719-0.91016 0.54297-0.64062 1.0078 0.32812 0.58203 1.0703 0.66016 1.582 1.0273 0.10937 0.058594 0.22266 0.13672 0.33594 0.19922 0.003906 0.65625 0.003906 1.3164 0 1.9648 0.035156 0.34375 0.36328 0.60547 0.70312 0.60156 0.79297-0.074219 0.78516-0.92578 0.78125-1.6172 0.64844 0.44922 1.2891 0.92969 1.9023 1.375 0.28906 0.17578 0.65625 0.16016 0.89844-0.10547 0.57031-0.72656-0.43359-1.3906-0.9375-1.8086z"/>
 <path d="m76.086 50.848c-0.76563-1.5273-1.9922-2.7695-3.2461-3.9062-0.44531-0.34766-0.82812-0.88672-1.4258-0.93359-0.89062-0.046874-0.98437 0.99609-0.39062 1.457 1.5234 1.1719 2.7891 2.5898 3.9141 4.1406 0.50781 0.54688 1.4414-0.074219 1.1484-0.75391z"/>
 <path d="m79.383 59.91c0.30469 0.63672 1.3281 0.41406 1.3398-0.28516 0.007813-0.43359-0.13672-0.85156-0.29688-1.25-0.57031-1.4766-1.1016-3.1055-2.1719-4.293-0.42188-0.3125-1.0703-0.14062-1.1484 0.41406-0.039063 0.91797 0.87109 1.6055 1.1055 2.4844 0.44922 0.94531 0.78906 1.9609 1.1758 2.9336z"/>
 <path d="m82.285 69.094c0.03125-1.5039-0.089844-3.0117-0.33984-4.4922-0.30078-1.0859-1.5859-0.90625-1.5312 0.22656 0.28906 1.3047 0.34375 2.6602 0.39453 3.9922 0.066406 0.64063-0.36328 2.0703 0.66406 2.1797 0.94922-0.011719 0.80078-1.2422 0.8125-1.9062z"/>
 <path d="m81.254 74.484c-0.89844-0.15625-0.96875 0.97266-1.0586 1.6055-0.16016 1.1758-0.38672 2.3477-0.64844 3.5078-0.042969 0.77344-1.1914 2.2031-0.125 2.6484 1.1992 0.32422 1.3711-2.2773 1.6797-3.0742 0.26172-0.99219 0.45313-2.0352 0.58594-3.0586 0.089844-0.55859 0.24219-1.3789-0.43359-1.625z"/>
 <path d="m77.176 85.203c-0.51562 0.48828-0.76562 1.2109-1.2031 1.7734-0.53125 0.80469-1.1367 1.543-1.7656 2.2695-0.42969 0.44531-1.2422 1.0938-0.67188 1.7344 0.67188 0.64062 1.3672-0.25781 1.7852-0.75 1.1328-1.1914 2.0469-2.5625 2.9023-3.957 0.46484-0.76953-0.25781-1.6602-1.0508-1.0742z"/>
<text fill="#000000" font-family="Arbeit Regular, Helvetica, Arial-Unicode, Arial, Sans-serif" font-weight="bold" font-size="5.0" y="117.5" x="0.0">Created by Kalinin Ilya</text><text fill="#000000" font-family="Arbeit Regular, Helvetica, Arial-Unicode, Arial, Sans-serif" font-weight="bold" font-size="5.0" y="122.5" x="0.0">from Noun Project</text></svg>