<svg viewBox="-4.2432459459459455 0.7459999999999987 109.1891891891892 100.44" version="1.1" xmlns="http://www.w3.org/2000/svg" style="max-height: 500px" width="109.1891891891892" height="100.44">
 <path d="m16.223 92.574c-2.0586-1.8086-2.1445-4.0625-0.52734-13.871 0.99219-6.0078 1.5664-9.8594 2.2188-14.82 0.10547-0.81641-0.0625-1.0352-1.7031-2.2266-2.9844-2.168-6.1055-5.3164-7.3359-7.3984-4.3164-7.2852-5.0078-14.836-2.1758-23.633 1.418-4.3984 5.1367-10.191 9.1641-14.266 2.3008-2.3281 3.0742-2.9023 5.5469-4.1055 5.3594-2.6094 13.68-4.9844 19.422-5.5469 5.0898-0.5 9.5156 0.21484 15.742 2.5391 3.6797 1.375 5.8086 2.4414 11.359 5.6797 5.9219 3.457 7.7344 4.7734 11.172 8.1016 7.0664 6.8477 11.191 13.578 13.734 22.41 1.4844 5.1562 1.9258 8.0312 2.1016 13.707 0.13281 4.3086 0.070313 5.4688-0.43359 7.8945-1.2695 6.1055-4.0273 9.8516-9.0391 12.285-5.1797 2.5117-10.277 3.6719-17.332 3.9414-5.3945 0.20703-8.3984-0.082031-14.988-1.4297-2.3672-0.48438-5.9492-1.2031-7.9531-1.6016-4.2305-0.83203-5.8789-1.4844-6.9297-2.7344l-0.75391-0.89844-0.35938 1.7305c-0.40625 1.9688-1.2383 3.1094-3.2695 4.4961-0.75781 0.51562-3.4648 2.5-6.0195 4.4102-4.4766 3.3516-9.1641 6.2188-10.156 6.2188-0.26562 0-0.92969-0.39453-1.4766-0.875zm10.441-16.453c4.4883-3.4023 6.4766-4.6562 7.3789-4.6562 0.33203 0 1.0742 0.32031 1.6523 0.71094l1.0508 0.71094 0.16797-0.83594c0.25-1.2461 1.8555-2.9102 3.1445-3.2578 1.1992-0.32422 4.7656 0.20312 11.012 1.625 7.1055 1.6172 8.2773 1.7656 13.812 1.7617 7.5742-0.007813 13.129-1.0742 18.863-3.625 2.1172-0.94141 3.5938-2.6836 4.0117-4.7305 0.51172-2.5156 0.089844-8.5234-0.85156-12.176-1.7812-6.9023-3.7383-10.656-8.4453-16.195-4.1172-4.8477-8.5312-8.1172-17.883-13.242-2.4531-1.3438-8.1211-3.5156-11.141-4.2695-3.418-0.85156-8.9023-0.91016-12.559-0.13281-3.3438 0.70703-11.344 3.25-13.684 4.3438-4.4297 2.0742-9.6953 8.9922-11.332 14.895-0.78906 2.8398-0.75 4.6953 0.14062 7.2188 1.0039 2.8398 2.3008 4.6016 5.75 7.8047 2.3711 2.1992 3.0469 3.0156 3.4297 4.1367 0.26172 0.76953 0.47656 1.6992 0.47656 2.0664 0 0.36719 0.42969 1.3633 0.95703 2.207 0.87109 1.4023 0.96484 1.793 1.0664 4.4023 0.097656 2.4766-0.54297 8.8906-1.3242 13.336-0.09375 0.53125-0.074219 0.96484 0.042969 0.96484 0.11719 0 2.0391-1.3828 4.2656-3.0703z"/>
<text fill="#000000" font-family="Arbeit Regular, Helvetica, Arial-Unicode, Arial, Sans-serif" font-weight="bold" font-size="5.0" y="117.5" x="0.0">Created by Hi Bubo</text><text fill="#000000" font-family="Arbeit Regular, Helvetica, Arial-Unicode, Arial, Sans-serif" font-weight="bold" font-size="5.0" y="122.5" x="0.0">from Noun Project</text></svg>