<svg viewBox="3.266891891891891 0.7459999999999987 95.13513513513514 96.92999999999999" version="1.1" xmlns="http://www.w3.org/2000/svg" style="max-height: 500px" width="95.13513513513514" height="96.92999999999999">
 <path d="m47.238 94.805c-4.0117-0.26563-4.7578-0.41016-5.3828-1.0312-1.4961-1.4961-1.2344-5.0664 0.44922-6.168 0.5625-0.36719 1.0703-0.39453 5.9141-0.32031 8.75 0.13281 8.6562 0.12891 9.1445 0.57031 1.7656 1.5977 1.7109 5.2695-0.10156 6.6953-0.57031 0.44922-0.82031 0.47656-4.1602 0.44531-1.9531-0.019532-4.5938-0.10156-5.8672-0.1875zm4.9609-9.0625c-0.96875-0.10156-3.7852-0.14453-6.2539-0.097657l-4.4922 0.085938-0.51953-0.5625c-1.2305-1.3281-1.2422-4.0625-0.019532-5.4688 0.28516-0.32422 1.1641-0.79297 2.1133-1.1211 1.5391-0.53125 1.8633-0.5625 5.9727-0.54688 7.9414 0.027344 9.4688 0.5625 10.059 3.5156 0.16797 0.83594-0.25781 2.6328-0.76953 3.2539-0.96094 1.168-2.1406 1.3516-6.0898 0.94141zm-11.895-8.1133c-1.0859-0.22656-1.9531-1.207-2.3242-2.625-0.14844-0.56641-0.46094-1.4609-0.69531-1.9883-0.48828-1.0938-0.76172-3.043-1.0234-7.3047-0.25781-4.1953 0.074219-5.543 1.5781-6.3906 0.51953-0.29297 0.65234-0.29297 1.1875 0.007813 1.3672 0.76562 2.0117 2.9531 2.2344 7.5977l0.13672 2.8672 1.6328 0.066406c0.89844 0.035156 1.7461 0.023437 1.8828-0.03125 0.18359-0.070313 0.18359-0.94141-0.011718-3.3711-0.79297-10.191-0.82031-10.789-0.53516-12.625 0.29687-1.9062 1.1094-3.8828 2.0625-5.0117 0.32422-0.38281 1.5508-1.3477 2.7344-2.1445 3.3438-2.2578 3.2656-2.1602 2.3984-2.9727-0.67188-0.63281-1.7891-0.79688-2.8945-0.43359-0.66016 0.21875-1.0547 0.5625-1.5938 1.3867-0.85156 1.3008-1.5664 1.75-2.332 1.457-1.4414-0.54688-2.1211-2.707-1.582-5.0312 0.41406-1.7852 0.91016-2.6133 2.3281-3.8867 2.0195-1.8125 4.9492-2.25 7.2383-1.082 2.168 1.1094 4.6133 4.7188 5.0547 7.4688 0.59375 3.6797-1.3359 6.7656-6.3047 10.094-2.0586 1.3789-2.2578 1.5742-2.2617 2.2031-0.011719 1.0117 0.92969 13.238 1.0195 13.34 0.042969 0.046875 0.76562-0.027344 1.6094-0.16406 0.84375-0.14063 1.9883-0.25391 2.5469-0.25391 0.61719 0 1.043-0.10547 1.0938-0.27734 0.046875-0.15234 0.25391-1.418 0.46094-2.8086 0.70703-4.7461 2.4336-9.1133 4.4023-11.133 0.60547-0.62109 2.0508-1.832 3.2148-2.6875 3.1367-2.3125 4.2969-3.9297 4.5469-6.332 0.19141-1.8398-0.34766-6.5977-0.95703-8.4609-1.3633-4.1719-4.2148-7.9102-7.9766-10.445-2.0078-1.3555-2.9336-1.7695-5.3281-2.3828-4.1992-1.0781-9.5547-0.039063-12.895 2.5-2.4023 1.8281-3.5469 3.2422-5.6094 6.9258-2.4805 4.4336-3.2344 7.4609-2.8672 11.512 0.1875 2.1016 0.30469 2.5117 1.1992 4.3047 0.54688 1.0898 1.4492 2.5273 2.0039 3.1953 1.2578 1.5 1.6602 2.3984 1.6641 3.7148 0.011719 1.3086-0.28516 2.0586-1.0352 2.6484-0.79688 0.62891-1.1641 0.59375-2.25-0.20703-1.9336-1.4219-4.5039-5.5742-5.3203-8.5938-1.0156-3.7578-1.1211-9.0781-0.25391-12.672 0.90625-3.7617 3.4023-9.2148 5.6641-12.387 2.2305-3.125 5.4414-5.9219 8.3164-7.2344 3.4727-1.5898 8.7539-2.1602 12.262-1.3242 3.3945 0.80859 7.8867 3.5 10.637 6.3789 3.5195 3.6836 6.5508 9.8242 7.2031 14.594 0.41406 3.0234 0.625 7.7617 0.42969 9.6836-0.44141 4.3555-3.4414 9.2031-7.332 11.848-0.71484 0.48438-1.7734 1.3398-2.3477 1.9023-0.91016 0.88281-1.1367 1.2969-1.7227 3.1445-0.37109 1.168-0.78125 3.0547-0.91016 4.1875-0.60156 5.2734-0.875 6.168-2.2812 7.4023-0.67578 0.59375-0.98047 0.6875-2.6016 0.82422-1.0117 0.085937-3.375 0.35156-5.2539 0.58984-3.8398 0.49219-8.9219 0.70312-10.242 0.42578zm32.504-7.1484c-1.9336-1.0391-5.1406-3.1367-5.5-3.5977-0.64844-0.82422-0.79688-2.3242-0.34766-3.5 0.68359-1.7891 1.7266-1.8633 4.8555-0.34375 1.2109 0.58984 2.4727 1.3555 2.7969 1.7031 1.1992 1.2852 1.5859 3.1094 0.97266 4.582-0.54688 1.3086-1.6484 1.7656-2.7773 1.1562zm-52.391-6.5898c-0.73828-0.8125-0.94922-1.3945-0.94922-2.6406 0-1.8008 0.81641-3.25 2.5-4.4453 2.1133-1.4961 3.1953-1.9805 3.8008-1.707 1.1094 0.50391 1.7578 2.3516 1.3945 3.9727-0.26172 1.1758-0.54297 1.5469-2.5195 3.3203-2.25 2.0195-3.3906 2.4258-4.2305 1.5zm57.215-9.6016c-1.8672-0.41406-2.3281-0.70703-2.7617-1.7422-0.60938-1.4531-0.050782-3.8945 1.0195-4.4688 0.26172-0.14062 1.3594-0.3125 2.4453-0.38281 2.3633-0.15234 3.4609 0.22266 4.2109 1.4336 0.60156 0.97266 0.65625 2.9297 0.10938 3.957-0.79297 1.4922-2.2031 1.8281-5.0234 1.2031zm-58.531-7.0625c-1.25-0.11328-1.6992-0.25391-2.1484-0.67578-1.543-1.4531-1.1797-4.957 0.61328-5.9062 0.90625-0.48047 4.7148-0.66797 5.6523-0.28125 1.4922 0.61719 2.1953 3.2539 1.3711 5.125-0.24609 0.55469-0.69531 1.1758-1 1.375-0.65625 0.42969-2.293 0.5625-4.4844 0.36719zm57.129-8.8359c-0.58203-0.61719-0.66797-0.87891-0.73438-2.2812-0.066406-1.375-0.011719-1.6875 0.4375-2.3477 0.71484-1.0508 1.6094-1.5156 3.6953-1.9102 1.6797-0.31641 1.8398-0.3125 2.5977 0.0625 1.1055 0.55078 1.6484 1.375 1.7773 2.7031 0.14844 1.5586-0.41016 2.9609-1.4609 3.6484-0.67578 0.44141-1.1914 0.55078-3.2266 0.67188l-2.4258 0.14453zm-54.285-9.1562c-1.4023-0.65625-1.6562-0.87109-2.0352-1.6992-0.8125-1.793-0.41406-3.8945 0.92578-4.8789 0.53516-0.39453 0.71094-0.41016 1.8516-0.17969 2.6914 0.53906 3.9102 1.8555 3.9102 4.2227 0 1.2617-0.25781 1.9688-1.0195 2.8086-0.64453 0.70703-1.7148 0.625-3.6328-0.27344zm51.422-3.7227c-1.25-1.25-1.2734-3.7422-0.046876-5.1445 0.91406-1.043 3.5078-2.2578 4.4961-2.1055 2.3438 0.35938 2.9336 4.4219 0.87891 6.043-0.89453 0.70703-3.3828 1.7305-4.207 1.7305-0.33594 0-0.82812-0.23047-1.1211-0.52344zm-40.352-5.957c-0.90234-0.39453-2.8516-2.6094-3.5547-4.0469-0.66797-1.3633-0.63672-3.0117 0.074218-3.9648 0.97656-1.3125 1.6797-1.2227 3.6602 0.46094 1.8711 1.5898 2.6211 2.707 2.7539 4.1016 0.17969 1.8516-0.8125 3.7773-1.9258 3.75-0.18359-0.003907-0.64063-0.14062-1.0078-0.30078zm29.848-2.4453c-1.2188-0.66406-1.6484-3.1641-0.84375-4.9336 0.51562-1.1367 3.1055-3.7656 4.1289-4.1875 0.61328-0.25391 0.78125-0.24609 1.2578 0.066407 0.84375 0.55078 1.2344 1.3047 1.3711 2.6484 0.20312 1.9688-0.28516 2.9141-2.418 4.6953-1.6836 1.4023-2.5508 2.0312-2.8047 2.0273-0.0625 0-0.37109-0.14453-0.69141-0.31641zm-15.574-3.2969c-0.90234-0.75781-1.207-2.0469-1.1133-4.6641 0.089844-2.4453 0.50391-3.6016 1.4336-4.0234 1.1133-0.50781 2.043 0.60156 2.4766 2.9414 0.51562 2.7969 0.20703 4.8086-0.88281 5.7266-0.83594 0.70312-1.0977 0.70703-1.9141 0.019531z"/>
<text fill="#000000" font-family="Arbeit Regular, Helvetica, Arial-Unicode, Arial, Sans-serif" font-weight="bold" font-size="5.0" y="117.5" x="0.0">Created by Hi Bubo</text><text fill="#000000" font-family="Arbeit Regular, Helvetica, Arial-Unicode, Arial, Sans-serif" font-weight="bold" font-size="5.0" y="122.5" x="0.0">from Noun Project</text></svg>