<svg viewBox="3.266891891891891 0.7459999999999987 95.13513513513514 96.92999999999999" version="1.1" xmlns="http://www.w3.org/2000/svg" style="max-height: 500px" width="95.13513513513514" height="96.92999999999999">
 <path d="m27.668 91.262c-2.8438-0.16797-7.875-0.24609-11.176-0.17578-7.0508 0.14844-7.6445 0.003906-8.5742-2.043-0.33594-0.73828-0.61328-1.6719-0.61719-2.0703 0-0.39844-0.34766-1.3164-0.76172-2.0391-1.2227-2.1211-1.5859-4.5469-1.5352-10.242 0.10156-10.738 2.5664-19.543 7.168-25.574 2.1914-2.875 6.7539-7.2578 8.7539-8.4062 0.86328-0.49609 1.6172-0.94141 1.6758-0.99219 0.0625-0.050781-0.19922-0.41797-0.57812-0.81641-1.082-1.1445-2.1211-3.4219-2.8555-6.2578-0.5625-2.1758-0.64844-3.1641-0.50781-5.9062 0.30859-5.9531 2.457-10.02 6.6602-12.621 0.69531-0.42969 1.6133-1.293 2.0391-1.9141 1.4844-2.1719 4.2969-2.6328 7.5664-1.2344 2.793 1.1914 4.25 2.1289 6.0898 3.918l1.6016 1.5547 0.20312-1.5117c0.28906-2.1562 1.1562-3.3906 3.0859-4.375 1.2734-0.64844 2.1055-0.84375 3.6016-0.84375 3.707 0 7.9336 2.9297 9.7812 6.7773l0.875 1.8203 0.19141-2.043c0.22266-2.3906 1.0156-4.1055 2.6172-5.6562 1.1719-1.1367 3.4844-2.0508 5.1914-2.0508 2.4336 0 8.0312 2.8867 9.5312 4.918 2.0664 2.7969 2.9531 5.9336 2.957 10.441 0 2.9453-0.16406 4.0156-1.1367 7.4258-0.17188 0.60547 0.078125 0.81641 2.1211 1.7852 3.8984 1.8477 5.8555 3.7773 8.2266 8.0898 1.3047 2.375 2.0977 4.582 3.1914 8.875 1.4453 5.6836 1.7266 7.9258 1.8984 15.359 0.20312 8.6602-0.32422 14.02-1.8203 18.492-1.5234 4.5508-2.1953 5.0078-7.1719 4.8945-5.0312-0.11328-8.1406-0.54688-9.1172-1.2656l-0.8125-0.59766-0.51953 0.875c-0.92578 1.5664-2.6172 2-7.5156 1.9258-2.3789-0.035156-4.668-0.19531-5.082-0.35156-0.41406-0.15625-1.1719-0.85938-1.6797-1.5625l-0.92188-1.2734-0.73828 1.3359c-1.1367 2.0625-2.4961 2.6367-7.1562 3.0273-5.8477 0.48828-18.895 0.65234-24.762 0.3125zm36.18-12.145c0.76953-0.19531 2.5508-0.35156 3.9609-0.35156h2.5664l-0.17188-6.1914c-0.26172-9.4023-1.4688-16.422-3.5234-20.477-1.8867-3.7266-6.25-7.6875-9.4922-8.6211-2.793-0.80469-3.7227-1.2852-4.4844-2.3125-0.61719-0.83594-0.89453-0.95312-2.2266-0.95312-2.6562 0-5.1797-1.8594-5.7461-4.2305-0.125-0.51562-0.29297-1.0625-0.375-1.207-0.13672-0.23828-1.957 2.7578-1.9531 3.2148 0 0.10156 0.78516 0.59375 1.7461 1.0977 3.3008 1.7227 8.5078 7.2812 11.043 11.781 2.9062 5.1641 5.6875 18.895 5.6992 28.156l-0.003906 2.2969 0.77734-0.92578c0.48828-0.57812 1.3008-1.0586 2.1758-1.2773zm-49.656 1.1797c1.3711-0.25781 4.293-0.33984 8.9336-0.25 8.9844 0.17188 23.648 0.03125 27.426-0.26562l2.9766-0.23047-0.082032-3.4492c-0.09375-4.0586-1.3477-11.441-2.5547-15.051-0.99219-2.9648-2.4336-5.2422-5.2539-8.2891-3.1133-3.3633-5.3477-4.4609-10.27-5.0352-4.3867-0.51172-8.9922 0.63281-12.711 3.1562-2.0469 1.3906-6.2461 5.582-7.543 7.5352-1.1562 1.7383-1.9375 3.8008-2.9492 7.7891-1.4219 5.6133-1.75 14.98-0.50781 14.617 0.27734-0.082031 1.418-0.32031 2.5391-0.53125zm68.535-2.7148c4.2344-0.10938 4.4453-0.14453 4.6523-0.79688 0.11719-0.375 0.28906-3.6523 0.38281-7.2852 0.18359-7.4531-0.078125-10.234-1.5195-15.965-1.6562-6.5977-3.0391-8.3711-8.5508-10.992-3.0078-1.4297-3.7969-1.9492-4.3281-2.8477-0.50781-0.86328-0.78906-1.0586-1.3086-0.91406-0.36328 0.10156-1.2617 0.27344-2 0.38281-0.73828 0.10938-1.4023 0.29688-1.4805 0.42188s0.41797 0.97266 1.0977 1.8828c4.8828 6.5469 7.5234 17.34 7.5234 30.77 0 5.5703 0.035157 5.9492 0.54688 5.7109 0.30078-0.14062 2.543-0.30859 4.9844-0.37109zm-46.93-46.066c2.3789-1.4688 3.3398-3.8867 2.5-6.2891-0.46094-1.3242-3.4766-3.3047-6.3125-4.1484l-2.207-0.65625-1.8633 1.8281c-2.2891 2.2461-2.7539 3.0977-2.7539 5.0273 0 2.6484 1.5664 4.2031 5.1719 5.1484 1.625 0.42578 3.9336 0.042969 5.4648-0.90234zm12.996-2.2656c3.8672-0.49219 5.6523-1.625 5.582-3.5508-0.074219-1.9688-0.78125-3.375-2.2109-4.4062-1.3086-0.94141-1.4883-0.98047-4.4805-0.98047-2.9648 0-3.1094 0.03125-2.9492 0.625 0.5625 2.0664 0.85938 4.9336 0.73438 7.0898-0.13281 2.293-0.10547 2.4414 0.37891 2 0.28906-0.26172 1.6133-0.60938 2.9453-0.78125zm22.68-2c1.6602-0.83984 2.2734-1.7891 2.2734-3.5156 0-2.2188-3.4961-4.3906-6.8086-4.2344-0.38281 0.019531-1.1445 0.52344-1.6875 1.1211-1.6406 1.8047-2.9648 1.8203-4.0859 0.058594-0.37109-0.58203-0.5625-0.73047-0.46484-0.36328 0.39844 1.5234 0.82422 4.457 0.82422 5.6562 0 1.1836 0.070312 1.2969 0.70703 1.1992 0.38672-0.0625 1.4102 0.16016 2.2734 0.49219 2.0938 0.80469 4.9023 0.64063 6.9727-0.41016z"/>
<text fill="#000000" font-family="Arbeit Regular, Helvetica, Arial-Unicode, Arial, Sans-serif" font-weight="bold" font-size="5.0" y="117.5" x="0.0">Created by Hi Bubo</text><text fill="#000000" font-family="Arbeit Regular, Helvetica, Arial-Unicode, Arial, Sans-serif" font-weight="bold" font-size="5.0" y="122.5" x="0.0">from Noun Project</text></svg>