<svg viewBox="3.266891891891891 0.7459999999999987 95.13513513513514 96.92999999999999" version="1.1" xmlns="http://www.w3.org/2000/svg" style="max-height: 500px" width="95.13513513513514" height="96.92999999999999">
 <path d="m38.312 94.312c-1.9336-2.1211-1.9219-4.8086 0.054688-12.406 1.5312-5.8789 1.7148-6.3789 2.6758-7.1562 0.94531-0.76562 1.5273-0.65234 2.5352 0.49609 1.0664 1.2109 1.4141 2.8438 1.1211 5.2461-0.34375 2.8398-1.9453 10.215-2.5977 11.953-0.92578 2.4766-2.5195 3.2578-3.793 1.8633zm30.285-5.2461c-0.91797-0.56641-2.8398-3.6953-5.9766-9.7305-2.2461-4.3203-2.2695-4.3867-2.2695-6.6758 0-2.8711 0.625-3.957 2.3711-4.1055 0.91016-0.078126 1.2578 0.066406 1.9258 0.78906 1.082 1.1719 6.3281 9.9961 7.1953 12.098 1.7422 4.2344-0.4375 9.3594-3.2461 7.625zm-52.156-12.18c-0.75781-0.44141-1.6875-2.582-1.6953-3.9023-0.019532-3.0273 1.4609-4.8711 5.4922-6.8438 7.7383-3.7852 8.4375-4.0586 9.2227-3.6172 1.2852 0.72266 1.9375 1.9297 2.0781 3.8477 0.25781 3.5703-0.89453 4.7539-8.668 8.8984-3.7461 2-5.1602 2.3555-6.4297 1.6172zm68.219-9.1211c-1.1875-0.57031-2.9023-1.5117-3.8125-2.0938s-2.5781-1.5586-3.7031-2.168-2.4375-1.4648-2.9141-1.8945c-3.2656-2.9688-2.2344-8.7656 1.5547-8.7656 1.5078 0 10.621 5.0391 13.191 7.293 2.3008 2.0195 2.332 6.5977 0.054688 8.1914-1.0039 0.70312-1.9844 0.57812-4.3672-0.56641zm-42.328-1.3789c-2.1641-0.76562-3.7812-1.7695-5.2891-3.2773-2.7812-2.7812-5.0273-6.5469-5.875-9.8555-1.1172-4.3516-0.15625-11.871 2.0938-16.367 1.0352-2.0703 3.3672-5.0195 4.875-6.1719 0.74609-0.57031 1.6094-1.543 1.9219-2.168 1.0977-2.1992 3.4219-3.1328 7.7852-3.1328 3.3086 0 5.6875 0.52734 7.6836 1.6953 3.0273 1.7734 6.6875 6.6211 8.9297 11.82 1 2.3164 1.0039 2.3555 0.96875 6.8438-0.042969 5.3711-0.55469 8.1016-2.1016 11.25-2.7773 5.6406-9.2305 9.5625-16.227 9.8633-2.5 0.10547-3.3086 0.023437-4.7656-0.49609zm7.9258-10.434c2.2344-0.60938 5.0508-2.0508 6.2656-3.2109 1.8047-1.7227 2.2266-2.7109 2.3906-5.6094l0.15234-2.6523-1.293-2.3398c-2.5859-4.6836-3.9844-5.4961-10.199-5.9414l-4.3984-0.31641-1.9531 2.0312c-1.0742 1.1172-2.2539 2.5234-2.6211 3.125-0.84766 1.3945-1.5898 4.625-1.5898 6.9336 0 1.5859 0.13672 1.9922 1.207 3.5977 3.1719 4.75 6.3867 5.918 12.039 4.3789zm-38.23-1.2266c-0.89844-0.15625-2.2852-1.3945-2.9219-2.6133-0.69531-1.3281-0.58203-3.5156 0.25391-5.0273 1.1758-2.125 1.7617-2.3125 7.9375-2.5391l5.418-0.19922 0.94141 0.9375c1.3438 1.3398 1.7852 3.2773 1.168 5.1367-0.73438 2.2148-1.7031 2.9336-4.8398 3.5938-2.7969 0.58984-6.6602 0.9375-7.9609 0.71094zm61.07-10.125c-2.5977-1.2969-2.7969-5.9883-0.33984-8.0547 1.1914-1 3.1953-1.3672 9.75-1.7734 4.9062-0.30469 5.3945-0.28906 6.457 0.21484 1.5664 0.74219 2.375 2.2109 2.375 4.3086 0 2.8945-1.4609 4.6055-4.3555 5.0938-2.7031 0.45703-13.078 0.61328-13.887 0.21094zm-48.914-11.195c-6.0898-2.7656-6.8008-3.1992-7.8516-4.7461-1.1406-1.6875-1.5039-3.6055-0.98828-5.2188 0.46484-1.4531 1.7109-2.8086 2.5859-2.8086 1 0 6.8984 3.0742 9.2461 4.8242 3.1094 2.3125 4.0586 5.1875 2.5742 7.8242-1.1016 1.9609-1.5117 1.9688-5.5664 0.12891zm42.156-1.4258c-0.625-0.53906-0.84375-1.0469-0.95703-2.2383-0.20312-2.0977 0.65234-3.7852 2.8984-5.7422 0.96484-0.83984 3.0273-2.7031 4.582-4.1445 3.5625-3.3008 6.1055-5 7.3086-4.8789 2.125 0.21484 2.7617 3.3906 1.1484 5.7188-1.3906 2.0078-8.6055 8.7695-11.766 11.035-1.5781 1.1289-2.1406 1.1758-3.2148 0.25391zm-9.2031-7.0039c-1.7383-0.91016-2.0352-3.8984-0.71875-7.2031 1.9766-4.957 4.0156-8.8672 4.8164-9.2305 1.8633-0.84766 3.4844 1.0078 3.457 3.957-0.015625 1.4883-0.30078 2.2188-2.7852 7.0586-2.9219 5.6992-3.3359 6.168-4.7734 5.418zm-20.551-2.7617c-0.82031-0.875-3.7422-5.8359-5.3438-9.0742-1.4492-2.9297-1.293-5.582 0.44141-7.4844 0.76172-0.83594 2.1133-0.88281 2.8945-0.10156 0.31641 0.31641 1.7734 2.9727 3.2344 5.9023 2.4023 4.8125 2.6602 5.4883 2.6602 7.0234 0 2.1055-0.51953 3.3906-1.6406 4.0508-1.1484 0.67578-1.3359 0.64844-2.2461-0.32031z"/>
<text fill="#000000" font-family="Arbeit Regular, Helvetica, Arial-Unicode, Arial, Sans-serif" font-weight="bold" font-size="5.0" y="117.5" x="0.0">Created by Hi Bubo</text><text fill="#000000" font-family="Arbeit Regular, Helvetica, Arial-Unicode, Arial, Sans-serif" font-weight="bold" font-size="5.0" y="122.5" x="0.0">from Noun Project</text></svg>