<?xml version="1.0" encoding="iso-8859-1"?>
<!-- Uploaded to: SVG Repo, www.svgrepo.com, Generator: SVG Repo Mixer Tools -->
<!DOCTYPE svg PUBLIC "-//W3C//DTD SVG 1.1//EN" "http://www.w3.org/Graphics/SVG/1.1/DTD/svg11.dtd">
<svg fill="#000000" version="1.1" id="Capa_1" xmlns="http://www.w3.org/2000/svg" xmlns:xlink="http://www.w3.org/1999/xlink" 
	 width="800px" height="800px" viewBox="0 0 190.281 190.281"
	 xml:space="preserve">
<g>
	<path d="M33.584,120.094c-5.584,1.012-9.118,4.556-11.172,9.1c-3.85,2.762-6.938,6.748-8.435,11.066
		c-3.532,10.188,0.044,22.862,9.087,29.118c14.735,10.195,31.995-4.394,36.871-18.335C65.52,135.076,50.492,117.034,33.584,120.094z
		"/>
	<g>
		<path d="M87.291,130.987C76.943,96.044,42.61,81.842,8.618,92.331c-7.147,2.205-4.032,11.923,3.005,10.9
			c25.901-3.77,51.388,1.841,60.998,28.377c3.027,8.358,4.713,17.335,5.61,26.153c0.328,3.226,0.374,6.462,0.28,9.699
			c-0.047,1.634-0.217,2.634-0.368,3.194c0.395-0.601,1.312-1.542,3.221-2.256c-3.951,1.477-5.785,6.324-2.534,9.596
			c5.662,5.696,12.766-0.386,13.661-6.754C94.345,158.052,91.014,143.561,87.291,130.987z"/>
		<path d="M78.144,170.655C77.716,171.303,77.902,171.546,78.144,170.655L78.144,170.655z"/>
	</g>
	<path d="M140.568,142.627c-0.036-21.466-9.903-45.146-23.173-61.73C92.003,49.16,38.828,26.779,2.34,54.234
		c-4.532,3.41-2.12,11.726,4.126,9.787c39.37-12.226,77.294-4.559,102.28,30.416c12.411,17.374,17.688,38.965,16.37,60.036
		c-0.504,3.719-1.145,7.411-1.922,11.079c-1.124,5.661-3.67,5.978,0.643,5.142c-2.396,0.465-3.245,2.749-4.029,4.718
		c-2.21,5.54,4.008,9.296,8.601,8.601C141.548,182.025,140.583,151.43,140.568,142.627z"/>
	<path d="M188.336,136.071c-3.977-26.756-12.615-52.972-25.555-76.743C132.935,4.493,64.51-7.883,8.666,9.579
		c-5.66,1.77-4.926,11.336,1.455,10.752c25.511-2.335,49.978-6.307,75.506-1.306c26.302,5.153,48.818,21.908,62.602,44.643
		c11.77,19.414,18.827,42.048,23.571,64.115c2.315,10.766,3.367,21.709,2.972,32.708c-0.272,7.554-4.682,14.567-4.367,21.906
		c0.14,3.284,3.511,6.757,7.042,5.363C194.415,181.068,190.398,149.944,188.336,136.071z"/>
</g>
</svg>